<svg xmlns="http://www.w3.org/2000/svg" width="48" height="47.999" viewBox="0 0 48 47.999"><defs><style>.a{fill:#fff;}</style></defs><g transform="translate(-3.7 -5.2)"><circle class="a" cx="4.293" cy="4.293" r="4.293" transform="translate(23.212 25.102)"/><path class="a" d="M33.2,19.2H22.471a5.332,5.332,0,0,0-3.8,1.366,5.332,5.332,0,0,0-1.366,3.8V35.1A5.378,5.378,0,0,0,18.763,39a5.5,5.5,0,0,0,3.8,1.366H33.2A5.332,5.332,0,0,0,37.007,39a5,5,0,0,0,1.463-3.8V24.468a5.5,5.5,0,0,0-1.366-3.8A5.224,5.224,0,0,0,33.2,19.2ZM27.836,36.37a6.634,6.634,0,1,1,0-13.268,6.635,6.635,0,1,1,0,13.268Zm6.927-12a1.561,1.561,0,1,1,1.561-1.561A1.541,1.541,0,0,1,34.763,24.371Z" transform="translate(-0.332 -0.342)"/><path class="a" d="M27.7,5.2a24,24,0,1,0,24,24A23.982,23.982,0,0,0,27.7,5.2ZM40.48,34.858a7.733,7.733,0,0,1-2.146,5.561,7.592,7.592,0,0,1-5.463,2.049H22.236a7.592,7.592,0,0,1-5.463-2.049,7.35,7.35,0,0,1-2.146-5.561V24.127a7.22,7.22,0,0,1,7.61-7.61H32.968a7.195,7.195,0,0,1,7.512,7.61V34.858Z"/></g></svg>