<svg xmlns="http://www.w3.org/2000/svg" width="48" height="48.002" viewBox="0 0 48 48.002"><defs><style>.a{fill:#fff;}</style></defs><g transform="translate(-3.722 -5.155)"><path class="a" d="M27.723,5.155a24,24,0,1,0,24,24A24,24,0,0,0,27.723,5.155ZM41.09,40.814a1.956,1.956,0,0,1-1.98,1.932H16.286a1.955,1.955,0,0,1-1.98-1.932V17.725a1.956,1.956,0,0,1,1.98-1.932H39.11a1.958,1.958,0,0,1,1.98,1.932V40.814Z"/><path class="a" d="M32.9,26.441a4.015,4.015,0,0,0-3.645,2.009v.04h-.026a.218.218,0,0,0,.026-.04V26.727H25.209c.054,1.14,0,12.168,0,12.168h4.045V32.1a2.757,2.757,0,0,1,.134-.986,2.22,2.22,0,0,1,2.075-1.481c1.466,0,2.051,1.117,2.051,2.752v6.511h4.045V31.918C37.557,28.179,35.56,26.441,32.9,26.441Z" transform="translate(-0.545 -0.539)"/><path class="a" d="M20.8,20.712a2.11,2.11,0,1,0-.054,4.208h.026a2.11,2.11,0,1,0,.027-4.208Z" transform="translate(-0.375 -0.394)"/><rect class="a" width="4.046" height="12.168" transform="translate(18.381 26.187)"/></g></svg>